<svg width="55" height="47" viewBox="0 0 55 47" fill="none" xmlns="http://www.w3.org/2000/svg">
<path d="M1.42857 12.3383H38.5714C39.3604 12.3383 40 11.6935 40 10.8981V7.29755C40 6.5021 39.3604 5.85733 38.5714 5.85733H1.42857C0.639554 5.85733 0 6.5021 0 7.29755V10.8981C0 11.6935 0.639554 12.3383 1.42857 12.3383ZM1.42857 26.7405H38.5714C39.3604 26.7405 40 26.0957 40 25.3003V21.6997C40 20.9043 39.3604 20.2595 38.5714 20.2595H1.42857C0.639554 20.2595 0 20.9043 0 21.6997V25.3003C0 26.0957 0.639554 26.7405 1.42857 26.7405ZM1.42857 41.1427H38.5714C39.3604 41.1427 40 40.4979 40 39.7024V36.1019C40 35.3064 39.3604 34.6617 38.5714 34.6617H1.42857C0.639554 34.6617 0 35.3064 0 36.1019V39.7024C0 40.4979 0.639554 41.1427 1.42857 41.1427Z" fill="black"/>
</svg>
